<svg xmlns="http://www.w3.org/2000/svg" xmlns:xlink="http://www.w3.org/1999/xlink" width="500" zoomAndPan="magnify" viewBox="0 0 375 374.999991" height="500" preserveAspectRatio="xMidYMid meet" version="1.0"><defs><g/><clipPath id="9245a1987c"><path d="M 5.667969 173 L 50 173 L 50 204.097656 L 5.667969 204.097656 Z M 5.667969 173 " clip-rule="nonzero"/></clipPath><clipPath id="6bf1222222"><path d="M 5.667969 163 L 50 163 L 50 195 L 5.667969 195 Z M 5.667969 163 " clip-rule="nonzero"/></clipPath><clipPath id="0a1d17c1ad"><path d="M 5.667969 153.261719 L 50.035156 153.261719 L 50.035156 185 L 5.667969 185 Z M 5.667969 153.261719 " clip-rule="nonzero"/></clipPath></defs><rect x="-37.5" width="450" fill="#ffffff" y="-37.499999" height="449.999989" fill-opacity="1"/><rect x="-37.5" width="450" fill="#ffffff" y="-37.499999" height="449.999989" fill-opacity="1"/><g clip-path="url(#9245a1987c)"><path fill="#000000" d="M 5.722656 204.0625 L 49.964844 204.097656 L 27.886719 173.3125 Z M 5.722656 204.0625 " fill-opacity="1" fill-rule="nonzero"/></g><g clip-path="url(#6bf1222222)"><path fill="#000000" d="M 6.371094 193.714844 L 27.886719 163.859375 L 49.300781 193.730469 L 6.371094 193.714844 M 5.667969 193.714844 C 5.667969 193.816406 5.6875 193.921875 5.738281 194.027344 C 5.863281 194.257812 6.105469 194.414062 6.371094 194.414062 L 49.300781 194.433594 C 49.5625 194.433594 49.808594 194.292969 49.929688 194.046875 C 49.984375 193.941406 50 193.835938 50 193.730469 C 50 193.589844 49.949219 193.449219 49.859375 193.328125 L 28.449219 163.453125 C 28.308594 163.277344 28.097656 163.15625 27.886719 163.15625 C 27.660156 163.15625 27.449219 163.261719 27.324219 163.453125 L 5.808594 193.292969 C 5.722656 193.414062 5.667969 193.554688 5.667969 193.714844 Z M 5.667969 193.714844 " fill-opacity="1" fill-rule="nonzero"/></g><g clip-path="url(#0a1d17c1ad)"><path fill="#000000" d="M 6.40625 183.800781 L 27.921875 153.964844 L 49.335938 183.835938 L 6.40625 183.800781 M 5.703125 183.800781 C 5.703125 183.90625 5.722656 184.011719 5.773438 184.117188 C 5.894531 184.347656 6.140625 184.503906 6.40625 184.503906 L 49.335938 184.539062 C 49.597656 184.539062 49.84375 184.398438 49.964844 184.152344 C 50.019531 184.046875 50.035156 183.941406 50.035156 183.835938 C 50.035156 183.695312 49.984375 183.554688 49.894531 183.433594 L 28.484375 153.5625 C 28.34375 153.386719 28.132812 153.261719 27.921875 153.261719 C 27.695312 153.261719 27.484375 153.367188 27.359375 153.5625 L 5.84375 183.378906 C 5.757812 183.503906 5.703125 183.660156 5.703125 183.800781 Z M 5.703125 183.800781 " fill-opacity="1" fill-rule="nonzero"/></g><g fill="#000000" fill-opacity="1"><g transform="translate(60.017822, 203.161645)"><g><path d="M 7.390625 -42.875 L 38.625 -42.875 L 38.625 -32.03125 L 18.609375 -32.03125 L 18.609375 -26.609375 L 35.234375 -26.609375 L 35.234375 -16.328125 L 18.609375 -16.328125 L 18.609375 -10.84375 L 38.625 -10.84375 L 38.625 0 L 7.390625 0 Z M 7.390625 -42.875 "/></g></g></g><g fill="#000000" fill-opacity="1"><g transform="translate(105.610226, 203.161645)"><g><path d="M 2.59375 -42.9375 L 43 -42.9375 L 22.796875 0.859375 Z M 22.796875 -4.5625 L 39.484375 -40.65625 L 6.15625 -40.65625 Z M 22.796875 -4.5625 "/></g></g></g><g fill="#000000" fill-opacity="1"><g transform="translate(151.202629, 203.161645)"><g><path d="M 7.390625 -42.875 L 38.625 -42.875 L 38.625 -32.03125 L 18.609375 -32.03125 L 18.609375 -26.609375 L 35.234375 -26.609375 L 35.234375 -16.328125 L 18.609375 -16.328125 L 18.609375 -10.84375 L 38.625 -10.84375 L 38.625 0 L 7.390625 0 Z M 7.390625 -42.875 "/></g></g></g><g fill="#000000" fill-opacity="1"><g transform="translate(196.795033, 203.161645)"><g><path d="M 6.09375 -0.0625 L 6.09375 -42.9375 L 8.5 -42.9375 L 38.4375 -13.796875 L 38.4375 -42.9375 L 40.71875 -42.9375 L 40.71875 -0.0625 Z M 6.09375 -0.0625 "/></g></g></g><g fill="#000000" fill-opacity="1"><g transform="translate(242.387436, 203.161645)"><g><path d="M 21.6875 0 L 21.6875 -32.03125 L 5.484375 -32.03125 L 5.484375 -42.875 L 40.109375 -42.875 L 40.109375 -32.03125 L 23.90625 -32.03125 L 23.90625 0 Z M 21.6875 0 "/></g></g></g><g fill="#000000" fill-opacity="1"><g transform="translate(287.97984, 203.161645)"><g><path d="M 41.53125 -10.90625 L 41.53125 0 L 8.875 0 L 8.875 -42.875 L 11.15625 -42.875 L 11.15625 -10.90625 Z M 41.53125 -10.90625 "/></g></g></g><g fill="#000000" fill-opacity="1"><g transform="translate(333.572243, 203.161645)"><g><path d="M 4.5 -42.875 L 41.09375 -42.875 L 23.96875 -17.5625 L 23.96875 0 L 21.6875 0 L 21.6875 -17.5625 Z M 4.5 -42.875 "/></g></g></g></svg>