<svg class="animated" id="freepik_stories-events" xmlns="http://www.w3.org/2000/svg" viewBox="0 0 500 500" version="1.1" xmlns:xlink="http://www.w3.org/1999/xlink" xmlns:svgjs="http://svgjs.com/svgjs"><style>svg#freepik_stories-calendar:not(.animated) .animable {opacity: 0;}svg#freepik_stories-calendar.animated #freepik--background-complete--inject-102 {animation: 1.5s Infinite  linear wind;animation-delay: -0.5s;}svg#freepik_stories-calendar.animated #freepik--Character--inject-102 {animation: 2.1s 1 forwards ease-out slideDown,1.5s Infinite  linear heartbeat;animation-delay: 0s,2.1s;}            @keyframes wind {                0% {                    transform: rotate( 0deg );                }                25% {                    transform: rotate( 1deg );                }                75% {                    transform: rotate( -1deg );                }            }                    @keyframes slideDown {                0% {                    opacity: 0;                    transform: translateY(-30px);                }                100% {                    opacity: 1;                    transform: translateY(0);                }            }                    @keyframes heartbeat {                0% {                    transform: scale(1);                }                10% {                    transform: scale(1.1);                }                30% {                    transform: scale(1);                }                40% {                    transform: scale(1);                }                50% {                    transform: scale(1.1);                }                60% {                    transform: scale(1);                }                100% {                    transform: scale(1);                }            }        .animator-hidden { display: none; }</style><g id="freepik--background-complete--inject-102" class="animable" style="transform-origin: 250px 226.395px;"><rect y="382.4" width="500" height="0.25" style="fill: rgb(250, 250, 250); transform-origin: 250px 382.525px;" id="elexon7j2f669" class="animable"></rect><rect x="398.39" y="393.28" width="24.83" height="0.25" style="fill: rgb(224, 224, 224); transform-origin: 410.805px 393.405px;" id="elkcy559d97t" class="animable"></rect><rect x="430.56" y="393.15" width="8.39" height="0.25" style="fill: rgb(224, 224, 224); transform-origin: 434.755px 393.275px;" id="el5hrsv21qse3" class="animable"></rect><rect x="280.04" y="394.83" width="51.99" height="0.25" style="fill: rgb(224, 224, 224); transform-origin: 306.035px 394.955px;" id="elh6ldrza94kp" class="animable"></rect><rect x="260.02" y="397.54" width="7.75" height="0.25" style="fill: rgb(224, 224, 224); transform-origin: 263.895px 397.665px;" id="elzym6i5fiva" class="animable"></rect><rect x="98.59" y="389.63" width="13.36" height="0.25" style="fill: rgb(224, 224, 224); transform-origin: 105.27px 389.755px;" id="eli6no4vawe07" class="animable"></rect><rect x="117.5" y="389.63" width="67.76" height="0.25" style="fill: rgb(224, 224, 224); transform-origin: 151.38px 389.755px;" id="el4t96xaicde4" class="animable"></rect><rect x="80.36" y="395.67" width="47.14" height="0.25" style="fill: rgb(224, 224, 224); transform-origin: 103.93px 395.795px;" id="eleff1ehe7z4w" class="animable"></rect><path d="M237,337.8H43.91a5.71,5.71,0,0,1-5.7-5.71V60.66A5.71,5.71,0,0,1,43.91,55H237a5.71,5.71,0,0,1,5.71,5.71V332.09A5.71,5.71,0,0,1,237,337.8ZM43.91,55.2a5.46,5.46,0,0,0-5.45,5.46V332.09a5.46,5.46,0,0,0,5.45,5.46H237a5.47,5.47,0,0,0,5.46-5.46V60.66A5.47,5.47,0,0,0,237,55.2Z" style="fill: rgb(224, 224, 224); transform-origin: 140.46px 196.4px;" id="el9gxrkc3fl7o" class="animable"></path><path d="M453.31,337.8H260.21a5.72,5.72,0,0,1-5.71-5.71V60.66A5.72,5.72,0,0,1,260.21,55h193.1A5.71,5.71,0,0,1,459,60.66V332.09A5.71,5.71,0,0,1,453.31,337.8ZM260.21,55.2a5.47,5.47,0,0,0-5.46,5.46V332.09a5.47,5.47,0,0,0,5.46,5.46h193.1a5.47,5.47,0,0,0,5.46-5.46V60.66a5.47,5.47,0,0,0-5.46-5.46Z" style="fill: rgb(224, 224, 224); transform-origin: 356.75px 196.4px;" id="elnzpzfsikiy" class="animable"></path><g id="el4krizxzxhzq"><rect x="341.75" y="318.28" width="35.33" height="64.12" style="fill: rgb(224, 224, 224); transform-origin: 359.415px 350.34px; transform: rotate(180deg);" class="animable"></rect></g><rect x="377.08" y="318.28" width="42.15" height="64.12" style="fill: rgb(235, 235, 235); transform-origin: 398.155px 350.34px;" id="elgl059a28ude" class="animable"></rect><g id="ellj5su1vxb4f"><rect x="341.75" y="323.7" width="77.85" height="2.9" style="fill: rgb(224, 224, 224); opacity: 0.7; mix-blend-mode: multiply; transform-origin: 380.675px 325.15px; transform: rotate(180deg);" class="animable"></rect></g><g id="el540cj1hs8ee"><rect x="339.8" y="311.57" width="37.28" height="13.36" style="fill: rgb(224, 224, 224); transform-origin: 358.44px 318.25px; transform: rotate(180deg);" class="animable"></rect></g><rect x="377.08" y="311.57" width="44.1" height="13.36" style="fill: rgb(235, 235, 235); transform-origin: 399.13px 318.25px;" id="elbwn9jp48m9p" class="animable"></rect><rect x="75.13" y="73.99" width="118.93" height="141.9" style="fill: rgb(224, 224, 224); transform-origin: 134.595px 144.94px;" id="el2yp91qbzr29" class="animable"></rect><rect x="77.68" y="73.99" width="121.83" height="141.9" style="fill: rgb(235, 235, 235); transform-origin: 138.595px 144.94px;" id="elxptt0txoyxr" class="animable"></rect><rect x="75.13" y="215.89" width="118.93" height="10.11" style="fill: rgb(224, 224, 224); transform-origin: 134.595px 220.945px;" id="elzx1ma9esgb" class="animable"></rect><rect x="86.74" y="215.89" width="121.83" height="10.11" style="fill: rgb(235, 235, 235); transform-origin: 147.655px 220.945px;" id="elfjar1i5zczn" class="animable"></rect><g id="elelhwq6rkkr"><rect x="75.26" y="91.64" width="126.66" height="106.59" style="fill: rgb(245, 245, 245); transform-origin: 138.59px 144.935px; transform: rotate(90deg);" class="animable"></rect></g><polygon points="98.38 208.27 143.09 81.61 164.19 81.61 119.49 208.27 98.38 208.27" style="fill: rgb(250, 250, 250); transform-origin: 131.285px 144.94px;" id="elcsvmxzszpyb" class="animable"></polygon><path d="M88.82,165.3a.55.55,0,0,1-.54-.55V86.56a.54.54,0,0,1,.54-.54.55.55,0,0,1,.55.54v78.19A.55.55,0,0,1,88.82,165.3Z" style="fill: rgb(235, 235, 235); transform-origin: 88.825px 125.66px;" id="elle2sru7q2nj" class="animable"></path><polygon points="124.02 208.27 168.73 81.61 176.96 81.61 132.25 208.27 124.02 208.27" style="fill: rgb(250, 250, 250); transform-origin: 150.49px 144.94px;" id="el00va0t852wldq" class="animable"></polygon><g id="el9b4zngy7sf"><rect x="128.07" y="144.46" width="126.66" height="0.97" style="fill: rgb(224, 224, 224); transform-origin: 191.4px 144.945px; transform: rotate(90deg);" class="animable"></rect></g><polygon points="201.3 91.35 82.38 91.35 81.68 84.57 200.6 84.57 201.3 91.35" style="fill: rgb(224, 224, 224); transform-origin: 141.49px 87.96px;" id="elajk2f065174" class="animable"></polygon><polygon points="201.3 96.32 82.38 96.32 81.68 89.53 200.6 89.53 201.3 96.32" style="fill: rgb(224, 224, 224); transform-origin: 141.49px 92.925px;" id="el5j425tttq7e" class="animable"></polygon><polygon points="201.3 102.28 82.38 102.28 81.68 95.49 200.6 95.49 201.3 102.28" style="fill: rgb(224, 224, 224); transform-origin: 141.49px 98.885px;" id="elphn7iryfrsh" class="animable"></polygon><polygon points="201.3 108.91 82.38 108.91 81.68 102.13 200.6 102.13 201.3 108.91" style="fill: rgb(224, 224, 224); transform-origin: 141.49px 105.52px;" id="el0enp510new8p" class="animable"></polygon><polygon points="201.3 116.86 82.38 116.86 81.68 110.07 200.6 110.07 201.3 116.86" style="fill: rgb(224, 224, 224); transform-origin: 141.49px 113.465px;" id="elclnxiqx0tfh" class="animable"></polygon><polygon points="201.3 125.79 82.38 125.79 81.68 119.01 200.6 119.01 201.3 125.79" style="fill: rgb(224, 224, 224); transform-origin: 141.49px 122.4px;" id="elx3ehues6pos" class="animable"></polygon><rect x="291.43" y="73.99" width="118.93" height="141.9" style="fill: rgb(224, 224, 224); transform-origin: 350.895px 144.94px;" id="eluqqgfdu3nbi" class="animable"></rect><rect x="293.97" y="73.99" width="121.83" height="141.9" style="fill: rgb(235, 235, 235); transform-origin: 354.885px 144.94px;" id="elcxcu3vrc19r" class="animable"></rect><rect x="291.43" y="215.89" width="118.93" height="10.11" style="fill: rgb(224, 224, 224); transform-origin: 350.895px 220.945px;" id="elew4o9a8xq7e" class="animable"></rect><rect x="303.04" y="215.89" width="121.83" height="10.11" style="fill: rgb(235, 235, 235); transform-origin: 363.955px 220.945px;" id="ela64j9sxp3wn" class="animable"></rect><g id="el6i4j8nybh65"><rect x="291.56" y="91.64" width="126.66" height="106.59" style="fill: rgb(245, 245, 245); transform-origin: 354.89px 144.935px; transform: rotate(90deg);" class="animable"></rect></g><polygon points="314.68 208.27 359.39 81.61 380.49 81.61 335.78 208.27 314.68 208.27" style="fill: rgb(250, 250, 250); transform-origin: 347.585px 144.94px;" id="ely8lfu3yisi" class="animable"></polygon><path d="M305.12,165.3a.55.55,0,0,1-.54-.55V86.56a.54.54,0,0,1,1.08,0v78.19A.55.55,0,0,1,305.12,165.3Z" style="fill: rgb(235, 235, 235); transform-origin: 305.12px 125.66px;" id="elk4d63958rzd" class="animable"></path><polygon points="340.32 208.27 385.03 81.61 393.25 81.61 348.55 208.27 340.32 208.27" style="fill: rgb(250, 250, 250); transform-origin: 366.785px 144.94px;" id="elokkudn4jca9" class="animable"></polygon><g id="el5h9v6074p4d"><rect x="344.37" y="144.46" width="126.66" height="0.97" style="fill: rgb(224, 224, 224); transform-origin: 407.7px 144.945px; transform: rotate(90deg);" class="animable"></rect></g><polygon points="417.6 91.35 298.68 91.35 297.97 84.57 416.9 84.57 417.6 91.35" style="fill: rgb(224, 224, 224); transform-origin: 357.785px 87.96px;" id="ely8mtgzx9tb" class="animable"></polygon><polygon points="417.6 96.32 298.68 96.32 297.97 89.53 416.9 89.53 417.6 96.32" style="fill: rgb(224, 224, 224); transform-origin: 357.785px 92.925px;" id="elm4qk9rnavin" class="animable"></polygon><polygon points="417.6 102.28 298.68 102.28 297.97 95.49 416.9 95.49 417.6 102.28" style="fill: rgb(224, 224, 224); transform-origin: 357.785px 98.885px;" id="el958q3l6zmek" class="animable"></polygon><polygon points="417.6 108.91 298.68 108.91 297.97 102.13 416.9 102.13 417.6 108.91" style="fill: rgb(224, 224, 224); transform-origin: 357.785px 105.52px;" id="ellj84mgafw6" class="animable"></polygon><polygon points="417.6 116.86 298.68 116.86 297.97 110.07 416.9 110.07 417.6 116.86" style="fill: rgb(224, 224, 224); transform-origin: 357.785px 113.465px;" id="elf1gytnk79zp" class="animable"></polygon><polygon points="417.6 125.79 298.68 125.79 297.97 119.01 416.9 119.01 417.6 125.79" style="fill: rgb(224, 224, 224); transform-origin: 357.785px 122.4px;" id="elwm0ei1ng1b" class="animable"></polygon><rect x="294.29" y="292.46" width="23.75" height="89.94" style="fill: rgb(224, 224, 224); transform-origin: 306.165px 337.43px;" id="eljz188gllwva" class="animable"></rect><polygon points="313.52 382.4 318.03 382.4 318.03 371.38 308.79 371.38 313.52 382.4" style="fill: rgb(245, 245, 245); transform-origin: 313.41px 376.89px;" id="elhz7bgasnk7c" class="animable"></polygon><rect x="63.81" y="292.46" width="23.75" height="89.94" style="fill: rgb(224, 224, 224); transform-origin: 75.685px 337.43px;" id="el4v3cpbyraw" class="animable"></rect><rect x="83.62" y="292.46" width="234.42" height="83.88" style="fill: rgb(245, 245, 245); transform-origin: 200.83px 334.4px;" id="el769heao0t2" class="animable"></rect><g id="ele8lqz96zcos"><rect x="228.48" y="270.51" width="59.9" height="112.2" style="fill: rgb(224, 224, 224); transform-origin: 258.43px 326.61px; transform: rotate(-90deg);" class="animable"></rect></g><g id="el6lh17rbsivs"><rect x="113.26" y="270.51" width="59.9" height="112.2" style="fill: rgb(224, 224, 224); transform-origin: 143.21px 326.61px; transform: rotate(-90deg);" class="animable"></rect></g><g id="el9m9cjsqnbwp"><rect x="255.1" y="309.79" width="6.67" height="112.2" style="fill: rgb(224, 224, 224); transform-origin: 258.435px 365.89px; transform: rotate(90deg);" class="animable"></rect></g><g id="elk0qx46o6mt"><rect x="139.88" y="309.79" width="6.67" height="112.2" style="fill: rgb(224, 224, 224); transform-origin: 143.215px 365.89px; transform: rotate(90deg);" class="animable"></rect></g><path d="M182.73,300.24h-79a13,13,0,0,1-9.39-4h97.82A13,13,0,0,1,182.73,300.24Z" style="fill: rgb(245, 245, 245); transform-origin: 143.25px 298.24px;" id="elbwg9lqzb2q" class="animable"></path><path d="M298.37,300.24h-79a13,13,0,0,1-9.39-4h97.82A12.94,12.94,0,0,1,298.37,300.24Z" style="fill: rgb(245, 245, 245); transform-origin: 258.89px 298.24px;" id="elkdniuyhggas" class="animable"></path><polygon points="88.13 382.4 83.61 382.4 83.61 371.38 92.85 371.38 88.13 382.4" style="fill: rgb(245, 245, 245); transform-origin: 88.23px 376.89px;" id="elhzgir7ecx5n" class="animable"></polygon><g id="elefztsrz8nku"><rect x="229.12" y="237.24" width="26.44" height="55.22" style="fill: rgb(224, 224, 224); opacity: 0.4; mix-blend-mode: multiply; transform-origin: 242.34px 264.85px;" class="animable"></rect></g><polygon points="277.77 292.46 233.02 292.46 228.81 232.83 273.55 232.83 277.77 292.46" style="fill: rgb(224, 224, 224); transform-origin: 253.29px 262.645px;" id="el723r2cjyw6h" class="animable"></polygon><polygon points="282.86 292.46 234.29 292.46 230.08 232.83 278.64 232.83 282.86 292.46" style="fill: rgb(245, 245, 245); transform-origin: 256.47px 262.645px;" id="el6dn0rkephvg" class="animable"></polygon><polygon points="236.54 290.18 232.65 235.11 276.4 235.11 280.3 290.18 236.54 290.18" style="fill: rgb(250, 250, 250); transform-origin: 256.475px 262.645px;" id="el3wtdfs339fr" class="animable"></polygon><polygon points="247.13 277.85 244.98 247.44 265.81 247.44 267.96 277.85 247.13 277.85" style="fill: rgb(245, 245, 245); transform-origin: 256.47px 262.645px;" id="elkrs4kylwca" class="animable"></polygon><circle cx="159.35" cy="271.05" r="11.62" style="fill: rgb(235, 235, 235); transform-origin: 159.35px 271.05px;" id="elsd46g1rsf7p" class="animable"></circle><circle cx="179.25" cy="276.59" r="11.62" style="fill: rgb(235, 235, 235); transform-origin: 179.25px 276.59px;" id="eljarf48rmb5g" class="animable"></circle><g id="elmdix18958fo"><circle cx="196.07" cy="271.75" r="7.75" style="fill: rgb(235, 235, 235); transform-origin: 196.07px 271.75px; transform: rotate(-22.39deg);" class="animable"></circle></g><g id="el5wm28cthb2w"><circle cx="170.98" cy="264" r="7.75" style="fill: rgb(235, 235, 235); transform-origin: 170.98px 264px; transform: rotate(-80.8deg);" class="animable"></circle></g><path d="M140.77,274.51s.91,17.95,35.78,17.95,35.78-17.95,35.78-17.95Z" style="fill: rgb(224, 224, 224); transform-origin: 176.55px 283.485px;" id="elfnuskn27xg9" class="animable"></path><path d="M108.57,286.31s-11.36-19.58,4.4-35.17c0,0,4.11,2.68,4,6.29s-4.41,4.51-3.48,7.52,5,6,2.35,8.45.43,4.69.25,7.74S108.57,286.31,108.57,286.31Z" style="fill: rgb(224, 224, 224); transform-origin: 110.791px 268.725px;" id="eljj0edcmaar" class="animable"></path><path d="M109.43,288.1s4.6-22.16-15.27-32c0,0-3.06,3.85-1.86,7.25s5.6,2.89,5.67,6-2.9,7.24.44,8.75,1.07,4.6,2.2,7.43S109.43,288.1,109.43,288.1Z" style="fill: rgb(224, 224, 224); transform-origin: 100.956px 272.103px;" id="elr7bfbowxo9" class="animable"></path><path d="M92,277.85s.38,14.61,14.86,14.61,14.86-14.61,14.86-14.61Z" style="fill: rgb(235, 235, 235); transform-origin: 106.86px 285.155px;" id="el6cn0osq2459" class="animable"></path></g><g id="freepik--Shadow--inject-102" class="animable animator-hidden" style="transform-origin: 250px 416.24px;"><ellipse cx="250" cy="416.24" rx="193.89" ry="11.32" style="fill: rgb(245, 245, 245); transform-origin: 250px 416.24px;" id="elrbp4xomhzga" class="animable"></ellipse></g><g id="freepik--Calendar--inject-102" class="animable" style="transform-origin: 274.337px 321.906px;"><path d="M180.45,272.44a2.34,2.34,0,0,1,0-4.67c5.72,0,10.54-8.19,10.54-17.89a2.34,2.34,0,0,1,4.67,0C195.66,262.53,189,272.44,180.45,272.44Z" style="fill: rgb(64, 123, 255); transform-origin: 186.961px 260.066px;" id="eltzy6u6vw84f" class="animable"></path><path d="M215.74,272.44a2.34,2.34,0,0,1,0-4.67c5.72,0,10.54-8.19,10.54-17.89a2.34,2.34,0,0,1,4.67,0C231,262.53,224.27,272.44,215.74,272.44Z" style="fill: rgb(64, 123, 255); transform-origin: 222.252px 260.066px;" id="elril0qb3wimh" class="animable"></path><path d="M251,272.44a2.34,2.34,0,0,1,0-4.67c5.71,0,10.54-8.19,10.54-17.89a2.33,2.33,0,0,1,4.66,0C266.23,262.53,259.56,272.44,251,272.44Z" style="fill: rgb(64, 123, 255); transform-origin: 257.506px 259.995px;" id="el4n0n6ddeg3i" class="animable"></path><path d="M286.32,272.44a2.34,2.34,0,1,1,0-4.67c5.71,0,10.54-8.19,10.54-17.89a2.33,2.33,0,0,1,4.66,0C301.52,262.53,294.84,272.44,286.32,272.44Z" style="fill: rgb(64, 123, 255); transform-origin: 292.674px 260.001px;" id="ellimoztaaw0p" class="animable"></path><path d="M321.6,272.44a2.34,2.34,0,0,1,0-4.67c5.72,0,10.54-8.19,10.54-17.89a2.34,2.34,0,0,1,4.67,0C336.81,262.53,330.13,272.44,321.6,272.44Z" style="fill: rgb(64, 123, 255); transform-origin: 328.111px 260.066px;" id="elggg6rdrq4d" class="animable"></path><path d="M356.89,272.44a2.34,2.34,0,0,1,0-4.67c5.71,0,10.54-8.19,10.54-17.89a2.34,2.34,0,0,1,4.67,0C372.1,262.53,365.42,272.44,356.89,272.44Z" style="fill: rgb(64, 123, 255); transform-origin: 363.401px 260.066px;" id="elc20xz1q3lkd" class="animable"></path><g id="el0oehhxkhdg9"><g style="opacity: 0.3; transform-origin: 275.181px 259.997px;" class="animable"><path d="M180.45,272.44a2.34,2.34,0,0,1,0-4.67c5.72,0,10.54-8.19,10.54-17.89a2.34,2.34,0,0,1,4.67,0C195.66,262.53,189,272.44,180.45,272.44Z" id="elpjegp04yfb" class="animable" style="transform-origin: 186.961px 260.066px;"></path><path d="M215.74,272.44a2.34,2.34,0,0,1,0-4.67c5.72,0,10.54-8.19,10.54-17.89a2.34,2.34,0,0,1,4.67,0C231,262.53,224.27,272.44,215.74,272.44Z" id="elar8u8ucsnzt" class="animable" style="transform-origin: 222.252px 260.066px;"></path><path d="M251,272.44a2.34,2.34,0,0,1,0-4.67c5.71,0,10.54-8.19,10.54-17.89a2.33,2.33,0,0,1,4.66,0C266.23,262.53,259.56,272.44,251,272.44Z" id="elvmmez5qmgap" class="animable" style="transform-origin: 257.506px 259.995px;"></path><path d="M286.32,272.44a2.34,2.34,0,1,1,0-4.67c5.71,0,10.54-8.19,10.54-17.89a2.33,2.33,0,0,1,4.66,0C301.52,262.53,294.84,272.44,286.32,272.44Z" id="el5qh1pmb1ems" class="animable" style="transform-origin: 292.674px 260.001px;"></path><path d="M321.6,272.44a2.34,2.34,0,0,1,0-4.67c5.72,0,10.54-8.19,10.54-17.89a2.34,2.34,0,0,1,4.67,0C336.81,262.53,330.13,272.44,321.6,272.44Z" id="elizrmjl4z4gf" class="animable" style="transform-origin: 328.111px 260.066px;"></path><path d="M356.89,272.44a2.34,2.34,0,0,1,0-4.67c5.71,0,10.54-8.19,10.54-17.89a2.34,2.34,0,0,1,4.67,0C372.1,262.53,365.42,272.44,356.89,272.44Z" id="elk58pqd77onr" class="animable" style="transform-origin: 363.401px 260.066px;"></path></g></g><path d="M158.34,252.27H385.52a12.51,12.51,0,0,1,12.19,11.19l12.58,141.83a10.11,10.11,0,0,1-10.2,11.19H172.9a12.53,12.53,0,0,1-12.19-11.19L148.14,263.46A10.1,10.1,0,0,1,158.34,252.27Z" style="fill: rgb(64, 123, 255); transform-origin: 279.214px 334.375px;" id="eloxhwubljvrq" class="animable"></path><g id="elj44iliou3fa"><path d="M158.34,252.27H385.52a12.51,12.51,0,0,1,12.19,11.19l12.58,141.83a10.11,10.11,0,0,1-10.2,11.19H172.9a12.53,12.53,0,0,1-12.19-11.19L148.14,263.46A10.1,10.1,0,0,1,158.34,252.27Z" style="fill: rgb(250, 250, 250); opacity: 0.4; transform-origin: 279.214px 334.375px;" class="animable"></path></g><path d="M383.63,252.27H156.44a11.86,11.86,0,0,0-11.7,11.19l-6.4,141.83A10.63,10.63,0,0,0,149,416.48H376.21a11.86,11.86,0,0,0,11.7-11.19l6.41-141.83A10.64,10.64,0,0,0,383.63,252.27Z" style="fill: rgb(64, 123, 255); transform-origin: 266.33px 334.375px;" id="ela2zwhpcqho" class="animable"></path><g id="eltkihn6jfa5c"><path d="M383.63,252.27H156.44a11.86,11.86,0,0,0-11.7,11.19l-6.4,141.83A10.63,10.63,0,0,0,149,416.48H376.21a11.86,11.86,0,0,0,11.7-11.19l6.41-141.83A10.64,10.64,0,0,0,383.63,252.27Z" style="fill: rgb(250, 250, 250); opacity: 0.2; transform-origin: 266.33px 334.375px;" class="animable"></path></g><path d="M160.61,379l5.29-117.13a4.53,4.53,0,0,1,4.48-4.28H369.21a4.07,4.07,0,0,1,4.09,4.28L368,379a4.53,4.53,0,0,1-4.48,4.28H164.7A4.07,4.07,0,0,1,160.61,379Z" style="fill: rgb(64, 123, 255); transform-origin: 266.955px 320.435px;" id="eleqt4p2uekbd" class="animable"></path><g id="elt6vdkw1rhjq"><path d="M160.61,379l5.29-117.13a4.53,4.53,0,0,1,4.48-4.28H369.21a4.07,4.07,0,0,1,4.09,4.28L368,379a4.53,4.53,0,0,1-4.48,4.28H164.7A4.07,4.07,0,0,1,160.61,379Z" style="fill: rgb(250, 250, 250); opacity: 0.1; transform-origin: 266.955px 320.435px;" class="animable"></path></g><g id="ellfwip1j0vak"><path d="M155,388.56l5.55-123a4.74,4.74,0,0,1,4.7-4.49H374.05a4.26,4.26,0,0,1,4.29,4.49l-5.56,123a4.75,4.75,0,0,1-4.69,4.5H159.27A4.25,4.25,0,0,1,155,388.56Z" style="opacity: 0.1; transform-origin: 266.669px 327.065px;" class="animable"></path></g><path d="M149.84,398.48l5.79-128.3a5,5,0,0,1,4.9-4.69H378.34a4.45,4.45,0,0,1,4.48,4.69L377,398.48a5,5,0,0,1-4.9,4.69H154.32A4.44,4.44,0,0,1,149.84,398.48Z" style="fill: rgb(250, 250, 250); transform-origin: 266.33px 334.33px;" id="el62r0tu26k02" class="animable"></path><path d="M356.86,273.18h0a3,3,0,0,1-3-3.18h0a3.15,3.15,0,0,1,3.11-3h0a3,3,0,0,1,3,3.18h0A3.15,3.15,0,0,1,356.86,273.18Z" style="fill: rgb(64, 123, 255); transform-origin: 356.915px 270.09px;" id="elgucbnt3t72" class="animable"></path><path d="M321.57,273.18h0a3,3,0,0,1-3-3.18h0a3.15,3.15,0,0,1,3.11-3h0a3,3,0,0,1,3,3.18h0A3.14,3.14,0,0,1,321.57,273.18Z" style="fill: rgb(64, 123, 255); transform-origin: 321.625px 270.09px;" id="ele0zg771cfd5" class="animable"></path><path d="M286.28,273.18h0a3,3,0,0,1-3-3.18h0a3.16,3.16,0,0,1,3.11-3h0a3,3,0,0,1,3,3.18h0A3.14,3.14,0,0,1,286.28,273.18Z" style="fill: rgb(64, 123, 255); transform-origin: 286.335px 270.09px;" id="el6vtuori81py" class="animable"></path><path d="M251,273.18h0a3,3,0,0,1-3-3.18h0a3.17,3.17,0,0,1,3.12-3h0a3,3,0,0,1,3,3.18h0A3.14,3.14,0,0,1,251,273.18Z" style="fill: rgb(64, 123, 255); transform-origin: 251.06px 270.09px;" id="elpj7alrsez5k" class="animable"></path><path d="M215.71,273.18h0a3,3,0,0,1-3-3.18h0a3.15,3.15,0,0,1,3.11-3h0a3,3,0,0,1,3,3.18h0A3.15,3.15,0,0,1,215.71,273.18Z" style="fill: rgb(64, 123, 255); transform-origin: 215.765px 270.09px;" id="elxa75bn8orps" class="animable"></path><path d="M180.42,273.18h0a3,3,0,0,1-3-3.18h0a3.15,3.15,0,0,1,3.11-3h0a3,3,0,0,1,3,3.18h0A3.14,3.14,0,0,1,180.42,273.18Z" style="fill: rgb(64, 123, 255); transform-origin: 180.475px 270.09px;" id="el0h9owvvmqq8c" class="animable"></path><g id="eljs9dt4w5ck"><g style="opacity: 0.1; transform-origin: 268.695px 270.09px;" class="animable"><path d="M356.86,273.18h0a3,3,0,0,1-3-3.18h0a3.15,3.15,0,0,1,3.11-3h0a3,3,0,0,1,3,3.18h0A3.15,3.15,0,0,1,356.86,273.18Z" style="fill: rgb(250, 250, 250); transform-origin: 356.915px 270.09px;" id="elqukob2ljb1q" class="animable"></path><path d="M321.57,273.18h0a3,3,0,0,1-3-3.18h0a3.15,3.15,0,0,1,3.11-3h0a3,3,0,0,1,3,3.18h0A3.14,3.14,0,0,1,321.57,273.18Z" style="fill: rgb(250, 250, 250); transform-origin: 321.625px 270.09px;" id="el68eo1nwbzyf" class="animable"></path><path d="M286.28,273.18h0a3,3,0,0,1-3-3.18h0a3.16,3.16,0,0,1,3.11-3h0a3,3,0,0,1,3,3.18h0A3.14,3.14,0,0,1,286.28,273.18Z" style="fill: rgb(250, 250, 250); transform-origin: 286.335px 270.09px;" id="elgzz3ivf476" class="animable"></path><path d="M251,273.18h0a3,3,0,0,1-3-3.18h0a3.17,3.17,0,0,1,3.12-3h0a3,3,0,0,1,3,3.18h0A3.14,3.14,0,0,1,251,273.18Z" style="fill: rgb(250, 250, 250); transform-origin: 251.06px 270.09px;" id="elgky8emezrht" class="animable"></path><path d="M215.71,273.18h0a3,3,0,0,1-3-3.18h0a3.15,3.15,0,0,1,3.11-3h0a3,3,0,0,1,3,3.18h0A3.15,3.15,0,0,1,215.71,273.18Z" style="fill: rgb(250, 250, 250); transform-origin: 215.765px 270.09px;" id="el2z1b9z6jml5" class="animable"></path><path d="M180.42,273.18h0a3,3,0,0,1-3-3.18h0a3.15,3.15,0,0,1,3.11-3h0a3,3,0,0,1,3,3.18h0A3.14,3.14,0,0,1,180.42,273.18Z" style="fill: rgb(250, 250, 250); transform-origin: 180.475px 270.09px;" id="eltw5plbxt4kc" class="animable"></path></g></g><path d="M189.24,284.36H171.49a1.86,1.86,0,0,1-1.87-2h0a2.08,2.08,0,0,1,2-2h17.75a1.86,1.86,0,0,1,1.87,2h0A2.08,2.08,0,0,1,189.24,284.36Z" style="fill: rgb(64, 123, 255); transform-origin: 180.43px 282.36px;" id="elnvwwn4jvm79" class="animable"></path><path d="M224.53,284.36H206.78a1.86,1.86,0,0,1-1.87-2h0a2.08,2.08,0,0,1,2.05-2H224.7a1.87,1.87,0,0,1,1.88,2h0A2.08,2.08,0,0,1,224.53,284.36Z" style="fill: rgb(64, 123, 255); transform-origin: 215.745px 282.36px;" id="elkxh5k6fgzt" class="animable"></path><path d="M259.82,284.36H242.07a1.87,1.87,0,0,1-1.88-2h0a2.08,2.08,0,0,1,2.05-2H260a1.86,1.86,0,0,1,1.87,2h0A2.07,2.07,0,0,1,259.82,284.36Z" style="fill: rgb(64, 123, 255); transform-origin: 251.03px 282.36px;" id="elxxxe337xvxe" class="animable"></path><path d="M295.1,284.36H277.35a1.86,1.86,0,0,1-1.87-2h0a2.08,2.08,0,0,1,2-2h17.75a1.86,1.86,0,0,1,1.87,2h0A2.08,2.08,0,0,1,295.1,284.36Z" style="fill: rgb(64, 123, 255); transform-origin: 286.29px 282.36px;" id="elxlt74guirpp" class="animable"></path><path d="M330.39,284.36H312.64a1.86,1.86,0,0,1-1.87-2h0a2.08,2.08,0,0,1,2.05-2h17.75a1.86,1.86,0,0,1,1.87,2h0A2.08,2.08,0,0,1,330.39,284.36Z" style="fill: rgb(64, 123, 255); transform-origin: 321.605px 282.36px;" id="el2ijiyjl2akr" class="animable"></path><path d="M365.68,284.36H347.93a1.86,1.86,0,0,1-1.87-2h0a2.08,2.08,0,0,1,2.05-2h17.74a1.87,1.87,0,0,1,1.88,2h0A2.08,2.08,0,0,1,365.68,284.36Z" style="fill: rgb(64, 123, 255); transform-origin: 356.895px 282.36px;" id="el0kkfuzet5wl" class="animable"></path><g id="elva5j389jy5"><g style="opacity: 0.3; transform-origin: 268.675px 282.36px;" class="animable"><path d="M189.24,284.36H171.49a1.86,1.86,0,0,1-1.87-2h0a2.08,2.08,0,0,1,2-2h17.75a1.86,1.86,0,0,1,1.87,2h0A2.08,2.08,0,0,1,189.24,284.36Z" id="elxfwdtfomlh" class="animable" style="transform-origin: 180.43px 282.36px;"></path><path d="M224.53,284.36H206.78a1.86,1.86,0,0,1-1.87-2h0a2.08,2.08,0,0,1,2.05-2H224.7a1.87,1.87,0,0,1,1.88,2h0A2.08,2.08,0,0,1,224.53,284.36Z" id="eli40ymjio1v" class="animable" style="transform-origin: 215.745px 282.36px;"></path><path d="M259.82,284.36H242.07a1.87,1.87,0,0,1-1.88-2h0a2.08,2.08,0,0,1,2.05-2H260a1.86,1.86,0,0,1,1.87,2h0A2.07,2.07,0,0,1,259.82,284.36Z" id="el3brmyoz6tct" class="animable" style="transform-origin: 251.03px 282.36px;"></path><path d="M295.1,284.36H277.35a1.86,1.86,0,0,1-1.87-2h0a2.08,2.08,0,0,1,2-2h17.75a1.86,1.86,0,0,1,1.87,2h0A2.08,2.08,0,0,1,295.1,284.36Z" id="el1e52te4j5pw" class="animable" style="transform-origin: 286.29px 282.36px;"></path><path d="M330.39,284.36H312.64a1.86,1.86,0,0,1-1.87-2h0a2.08,2.08,0,0,1,2.05-2h17.75a1.86,1.86,0,0,1,1.87,2h0A2.08,2.08,0,0,1,330.39,284.36Z" id="elid9awhwyy4a" class="animable" style="transform-origin: 321.605px 282.36px;"></path><path d="M365.68,284.36H347.93a1.86,1.86,0,0,1-1.87-2h0a2.08,2.08,0,0,1,2.05-2h17.74a1.87,1.87,0,0,1,1.88,2h0A2.08,2.08,0,0,1,365.68,284.36Z" id="el1bsnkdxj181" class="animable" style="transform-origin: 356.895px 282.36px;"></path></g></g><path d="M190.22,322.13H167.1a3.73,3.73,0,0,1-3.74-3.92l1-23.12a4.16,4.16,0,0,1,4.1-3.92h23.12a3.73,3.73,0,0,1,3.74,3.92l-1,23.12A4.17,4.17,0,0,1,190.22,322.13Z" style="fill: rgb(64, 123, 255); transform-origin: 179.34px 306.65px;" id="elsh09c01uk3t" class="animable"></path><path d="M225.51,322.13H202.39a3.72,3.72,0,0,1-3.74-3.92l1-23.12a4.16,4.16,0,0,1,4.1-3.92H226.9a3.74,3.74,0,0,1,3.75,3.92l-1.05,23.12A4.15,4.15,0,0,1,225.51,322.13Z" style="fill: rgb(64, 123, 255); transform-origin: 214.649px 306.65px;" id="eldtc5wcwwnas" class="animable"></path><path d="M260.79,322.13H237.68a3.74,3.74,0,0,1-3.75-3.92l1-23.12a4.16,4.16,0,0,1,4.1-3.92h23.11a3.72,3.72,0,0,1,3.74,3.92l-1,23.12A4.16,4.16,0,0,1,260.79,322.13Z" style="fill: rgb(64, 123, 255); transform-origin: 249.906px 306.65px;" id="elg8rkjgjsag" class="animable"></path><path d="M296.08,322.13H273a3.73,3.73,0,0,1-3.75-3.92l1-23.12a4.15,4.15,0,0,1,4.09-3.92h23.12a3.73,3.73,0,0,1,3.74,3.92l-1,23.12A4.16,4.16,0,0,1,296.08,322.13Z" style="fill: rgb(64, 123, 255); transform-origin: 285.225px 306.65px;" id="eld4fc7vhk0jk" class="animable"></path><path d="M331.37,322.13H308.25a3.73,3.73,0,0,1-3.74-3.92l1-23.12a4.16,4.16,0,0,1,4.1-3.92h23.11a3.73,3.73,0,0,1,3.75,3.92l-1,23.12A4.17,4.17,0,0,1,331.37,322.13Z" style="fill: rgb(64, 123, 255); transform-origin: 320.49px 306.65px;" id="elvmps1yzdfg" class="animable"></path><path d="M366.65,322.13H343.54a3.72,3.72,0,0,1-3.74-3.92l1-23.12a4.16,4.16,0,0,1,4.1-3.92h23.11a3.74,3.74,0,0,1,3.75,3.92l-1.05,23.12A4.15,4.15,0,0,1,366.65,322.13Z" style="fill: rgb(64, 123, 255); transform-origin: 355.779px 306.65px;" id="el1t5qs89cb2u" class="animable"></path><g id="el6sjpu1mwxse"><g style="opacity: 0.8; transform-origin: 267.56px 306.65px;" class="animable"><path d="M190.22,322.13H167.1a3.73,3.73,0,0,1-3.74-3.92l1-23.12a4.16,4.16,0,0,1,4.1-3.92h23.12a3.73,3.73,0,0,1,3.74,3.92l-1,23.12A4.17,4.17,0,0,1,190.22,322.13Z" style="fill: rgb(250, 250, 250); transform-origin: 179.34px 306.65px;" id="elermjrd7w51w" class="animable"></path><path d="M225.51,322.13H202.39a3.72,3.72,0,0,1-3.74-3.92l1-23.12a4.16,4.16,0,0,1,4.1-3.92H226.9a3.74,3.74,0,0,1,3.75,3.92l-1.05,23.12A4.15,4.15,0,0,1,225.51,322.13Z" style="fill: rgb(250, 250, 250); transform-origin: 214.649px 306.65px;" id="elgmrn9tneomc" class="animable"></path><path d="M260.79,322.13H237.68a3.74,3.74,0,0,1-3.75-3.92l1-23.12a4.16,4.16,0,0,1,4.1-3.92h23.11a3.72,3.72,0,0,1,3.74,3.92l-1,23.12A4.16,4.16,0,0,1,260.79,322.13Z" style="fill: rgb(250, 250, 250); transform-origin: 249.906px 306.65px;" id="el46zqb8gh7yw" class="animable"></path><path d="M296.08,322.13H273a3.73,3.73,0,0,1-3.75-3.92l1-23.12a4.15,4.15,0,0,1,4.09-3.92h23.12a3.73,3.73,0,0,1,3.74,3.92l-1,23.12A4.16,4.16,0,0,1,296.08,322.13Z" style="fill: rgb(250, 250, 250); transform-origin: 285.225px 306.65px;" id="el536xu94gqqd" class="animable"></path><path d="M331.37,322.13H308.25a3.73,3.73,0,0,1-3.74-3.92l1-23.12a4.16,4.16,0,0,1,4.1-3.92h23.11a3.73,3.73,0,0,1,3.75,3.92l-1,23.12A4.17,4.17,0,0,1,331.37,322.13Z" style="fill: rgb(250, 250, 250); transform-origin: 320.49px 306.65px;" id="el9crrrj784yk" class="animable"></path><path d="M366.65,322.13H343.54a3.72,3.72,0,0,1-3.74-3.92l1-23.12a4.16,4.16,0,0,1,4.1-3.92h23.11a3.74,3.74,0,0,1,3.75,3.92l-1.05,23.12A4.15,4.15,0,0,1,366.65,322.13Z" style="fill: rgb(250, 250, 250); transform-origin: 355.779px 306.65px;" id="ell814sladaj" class="animable"></path></g></g><path d="M188.6,358H165.48a3.73,3.73,0,0,1-3.74-3.92l1-23.12a4.17,4.17,0,0,1,4.1-3.92H190a3.73,3.73,0,0,1,3.74,3.92l-1,23.12A4.17,4.17,0,0,1,188.6,358Z" style="fill: rgb(64, 123, 255); transform-origin: 177.74px 342.52px;" id="ell4c3gfptpeb" class="animable"></path><path d="M223.89,358H200.77a3.73,3.73,0,0,1-3.74-3.92l1-23.12a4.16,4.16,0,0,1,4.1-3.92h23.11A3.74,3.74,0,0,1,229,331L228,354.08A4.15,4.15,0,0,1,223.89,358Z" style="fill: rgb(64, 123, 255); transform-origin: 213.016px 342.52px;" id="el6sph4trer9b" class="animable"></path><path d="M259.17,358H236.06a3.72,3.72,0,0,1-3.74-3.92l1-23.12a4.16,4.16,0,0,1,4.1-3.92h23.11a3.72,3.72,0,0,1,3.74,3.92l-1,23.12A4.16,4.16,0,0,1,259.17,358Z" style="fill: rgb(64, 123, 255); transform-origin: 248.295px 342.52px;" id="elty774i0kij" class="animable"></path><path d="M294.46,358H271.35a3.74,3.74,0,0,1-3.75-3.92l1-23.12a4.15,4.15,0,0,1,4.09-3.92h23.12A3.73,3.73,0,0,1,299.6,331l-1,23.12A4.16,4.16,0,0,1,294.46,358Z" style="fill: rgb(64, 123, 255); transform-origin: 283.601px 342.52px;" id="elnb4a7quzj4q" class="animable"></path><path d="M329.75,358H306.63a3.73,3.73,0,0,1-3.74-3.92l1-23.12A4.17,4.17,0,0,1,308,327h23.12a3.73,3.73,0,0,1,3.74,3.92l-1,23.12A4.17,4.17,0,0,1,329.75,358Z" style="fill: rgb(64, 123, 255); transform-origin: 318.875px 342.5px;" id="el25oq206mrli" class="animable"></path><path d="M365,358H341.92a3.72,3.72,0,0,1-3.74-3.92l1-23.12a4.16,4.16,0,0,1,4.1-3.92h23.11a3.74,3.74,0,0,1,3.75,3.92l-1.05,23.12A4.15,4.15,0,0,1,365,358Z" style="fill: rgb(64, 123, 255); transform-origin: 354.159px 342.52px;" id="ele4pfyar37fu" class="animable"></path><g id="eln07kz4nur4b"><g style="opacity: 0.8; transform-origin: 265.94px 342.5px;" class="animable"><path d="M188.6,358H165.48a3.73,3.73,0,0,1-3.74-3.92l1-23.12a4.17,4.17,0,0,1,4.1-3.92H190a3.73,3.73,0,0,1,3.74,3.92l-1,23.12A4.17,4.17,0,0,1,188.6,358Z" style="fill: rgb(250, 250, 250); transform-origin: 177.74px 342.52px;" id="elzjuu8ysgyd" class="animable"></path><path d="M223.89,358H200.77a3.73,3.73,0,0,1-3.74-3.92l1-23.12a4.16,4.16,0,0,1,4.1-3.92h23.11A3.74,3.74,0,0,1,229,331L228,354.08A4.15,4.15,0,0,1,223.89,358Z" style="fill: rgb(250, 250, 250); transform-origin: 213.016px 342.52px;" id="elupdb95nvbe" class="animable"></path><path d="M259.17,358H236.06a3.72,3.72,0,0,1-3.74-3.92l1-23.12a4.16,4.16,0,0,1,4.1-3.92h23.11a3.72,3.72,0,0,1,3.74,3.92l-1,23.12A4.16,4.16,0,0,1,259.17,358Z" style="fill: rgb(250, 250, 250); transform-origin: 248.295px 342.52px;" id="elumbd32q5nmr" class="animable"></path><path d="M294.46,358H271.35a3.74,3.74,0,0,1-3.75-3.92l1-23.12a4.15,4.15,0,0,1,4.09-3.92h23.12A3.73,3.73,0,0,1,299.6,331l-1,23.12A4.16,4.16,0,0,1,294.46,358Z" style="fill: rgb(250, 250, 250); transform-origin: 283.601px 342.52px;" id="eld0i2wb9evu" class="animable"></path><path d="M329.75,358H306.63a3.73,3.73,0,0,1-3.74-3.92l1-23.12A4.17,4.17,0,0,1,308,327h23.12a3.73,3.73,0,0,1,3.74,3.92l-1,23.12A4.17,4.17,0,0,1,329.75,358Z" style="fill: rgb(250, 250, 250); transform-origin: 318.875px 342.5px;" id="el23zt6wdo54z" class="animable"></path><path d="M365,358H341.92a3.72,3.72,0,0,1-3.74-3.92l1-23.12a4.16,4.16,0,0,1,4.1-3.92h23.11a3.74,3.74,0,0,1,3.75,3.92l-1.05,23.12A4.15,4.15,0,0,1,365,358Z" style="fill: rgb(250, 250, 250); transform-origin: 354.159px 342.52px;" id="el6qrfy6y3l6" class="animable"></path></g></g><path d="M187,393.86H163.86a3.72,3.72,0,0,1-3.74-3.92l1-23.11a4.16,4.16,0,0,1,4.1-3.92h23.12a3.72,3.72,0,0,1,3.74,3.92l-1,23.11A4.15,4.15,0,0,1,187,393.86Z" style="fill: rgb(64, 123, 255); transform-origin: 176.1px 378.385px;" id="ellqex81afof" class="animable"></path><path d="M222.27,393.86H199.15a3.72,3.72,0,0,1-3.74-3.92l1-23.11a4.15,4.15,0,0,1,4.1-3.92h23.11a3.72,3.72,0,0,1,3.75,3.92l-1,23.11A4.14,4.14,0,0,1,222.27,393.86Z" style="fill: rgb(64, 123, 255); transform-origin: 211.39px 378.385px;" id="ela91m1hm97no" class="animable"></path><path d="M257.55,393.86H234.44a3.72,3.72,0,0,1-3.74-3.92l1-23.11a4.15,4.15,0,0,1,4.1-3.92H259a3.73,3.73,0,0,1,3.75,3.92l-1.05,23.11A4.15,4.15,0,0,1,257.55,393.86Z" style="fill: rgb(64, 123, 255); transform-origin: 246.725px 378.385px;" id="el6j28lds43c2" class="animable"></path><path d="M292.84,393.86H269.73a3.73,3.73,0,0,1-3.75-3.92l1-23.11a4.14,4.14,0,0,1,4.09-3.92h23.12a3.72,3.72,0,0,1,3.74,3.92l-1,23.11A4.15,4.15,0,0,1,292.84,393.86Z" style="fill: rgb(64, 123, 255); transform-origin: 281.955px 378.385px;" id="eln0hkz8vwixb" class="animable"></path><path d="M328.13,393.86H305a3.72,3.72,0,0,1-3.74-3.92l1-23.11a4.16,4.16,0,0,1,4.1-3.92h23.12a3.72,3.72,0,0,1,3.74,3.92l-1,23.11A4.16,4.16,0,0,1,328.13,393.86Z" style="fill: rgb(64, 123, 255); transform-origin: 317.24px 378.385px;" id="elykq5y2glaii" class="animable"></path><path d="M363.42,393.86H340.3a3.72,3.72,0,0,1-3.74-3.92l1-23.11a4.15,4.15,0,0,1,4.1-3.92h23.11a3.73,3.73,0,0,1,3.75,3.92l-1.05,23.11A4.14,4.14,0,0,1,363.42,393.86Z" style="fill: rgb(64, 123, 255); transform-origin: 352.54px 378.385px;" id="elvgnbbwr6jzq" class="animable"></path><g id="elugpka5ewdw"><g style="opacity: 0.8; transform-origin: 264.32px 378.385px;" class="animable"><path d="M187,393.86H163.86a3.72,3.72,0,0,1-3.74-3.92l1-23.11a4.16,4.16,0,0,1,4.1-3.92h23.12a3.72,3.72,0,0,1,3.74,3.92l-1,23.11A4.15,4.15,0,0,1,187,393.86Z" style="fill: rgb(250, 250, 250); transform-origin: 176.1px 378.385px;" id="el7232ufuoi0e" class="animable"></path><path d="M222.27,393.86H199.15a3.72,3.72,0,0,1-3.74-3.92l1-23.11a4.15,4.15,0,0,1,4.1-3.92h23.11a3.72,3.72,0,0,1,3.75,3.92l-1,23.11A4.14,4.14,0,0,1,222.27,393.86Z" style="fill: rgb(250, 250, 250); transform-origin: 211.39px 378.385px;" id="elz8lecpgqqg" class="animable"></path><path d="M257.55,393.86H234.44a3.72,3.72,0,0,1-3.74-3.92l1-23.11a4.15,4.15,0,0,1,4.1-3.92H259a3.73,3.73,0,0,1,3.75,3.92l-1.05,23.11A4.15,4.15,0,0,1,257.55,393.86Z" style="fill: rgb(250, 250, 250); transform-origin: 246.725px 378.385px;" id="elatytbw4lym5" class="animable"></path><path d="M292.84,393.86H269.73a3.73,3.73,0,0,1-3.75-3.92l1-23.11a4.14,4.14,0,0,1,4.09-3.92h23.12a3.72,3.72,0,0,1,3.74,3.92l-1,23.11A4.15,4.15,0,0,1,292.84,393.86Z" style="fill: rgb(250, 250, 250); transform-origin: 281.955px 378.385px;" id="elrube0l074y" class="animable"></path><path d="M328.13,393.86H305a3.72,3.72,0,0,1-3.74-3.92l1-23.11a4.16,4.16,0,0,1,4.1-3.92h23.12a3.72,3.72,0,0,1,3.74,3.92l-1,23.11A4.16,4.16,0,0,1,328.13,393.86Z" style="fill: rgb(250, 250, 250); transform-origin: 317.24px 378.385px;" id="elhrqw96j81dr" class="animable"></path><path d="M363.42,393.86H340.3a3.72,3.72,0,0,1-3.74-3.92l1-23.11a4.15,4.15,0,0,1,4.1-3.92h23.11a3.73,3.73,0,0,1,3.75,3.92l-1.05,23.11A4.14,4.14,0,0,1,363.42,393.86Z" style="fill: rgb(250, 250, 250); transform-origin: 352.54px 378.385px;" id="elxl76zl42lug" class="animable"></path></g></g><path d="M180.45,272.44c-8.52,0-15.2-9.91-15.2-22.56s6.68-22.55,15.2-22.55,15.21,9.91,15.21,22.55a2.34,2.34,0,0,1-4.67,0c0-9.69-4.82-17.89-10.54-17.89s-10.54,8.2-10.54,17.89,4.83,17.89,10.54,17.89a2.34,2.34,0,1,1,0,4.67Z" style="fill: rgb(64, 123, 255); transform-origin: 180.455px 249.888px;" id="elq27pg34918o" class="animable"></path><path d="M215.74,272.44c-8.52,0-15.2-9.91-15.2-22.56s6.68-22.55,15.2-22.55S231,237.24,231,249.88a2.34,2.34,0,0,1-4.67,0c0-9.69-4.82-17.89-10.54-17.89s-10.54,8.2-10.54,17.89,4.83,17.89,10.54,17.89a2.34,2.34,0,0,1,0,4.67Z" style="fill: rgb(64, 123, 255); transform-origin: 215.77px 249.885px;" id="ellwmdpklg4t" class="animable"></path><path d="M251,272.44c-8.53,0-15.21-9.91-15.21-22.56s6.68-22.55,15.21-22.55,15.2,9.91,15.2,22.55a2.33,2.33,0,0,1-4.66,0c0-9.69-4.83-17.89-10.54-17.89s-10.54,8.2-10.54,17.89,4.83,17.89,10.54,17.89a2.34,2.34,0,0,1,0,4.67Z" style="fill: rgb(64, 123, 255); transform-origin: 250.995px 249.885px;" id="el2w1hx7zp7ln" class="animable"></path><path d="M286.32,272.44c-8.53,0-15.21-9.91-15.21-22.56s6.68-22.55,15.21-22.55,15.2,9.91,15.2,22.55a2.33,2.33,0,0,1-4.66,0c0-9.69-4.83-17.89-10.54-17.89s-10.54,8.2-10.54,17.89,4.82,17.89,10.54,17.89a2.34,2.34,0,0,1,0,4.67Z" style="fill: rgb(64, 123, 255); transform-origin: 286.315px 249.885px;" id="elo5i0egsds1f" class="animable"></path><path d="M321.6,272.44c-8.52,0-15.2-9.91-15.2-22.56s6.68-22.55,15.2-22.55,15.21,9.91,15.21,22.55a2.34,2.34,0,0,1-4.67,0c0-9.69-4.82-17.89-10.54-17.89s-10.54,8.2-10.54,17.89,4.83,17.89,10.54,17.89a2.34,2.34,0,1,1,0,4.67Z" style="fill: rgb(64, 123, 255); transform-origin: 321.605px 249.888px;" id="elrq4hvsjvwwm" class="animable"></path><path d="M356.89,272.44c-8.52,0-15.2-9.91-15.2-22.56s6.68-22.55,15.2-22.55,15.21,9.91,15.21,22.55a2.34,2.34,0,0,1-4.67,0c0-9.69-4.83-17.89-10.54-17.89s-10.54,8.2-10.54,17.89,4.83,17.89,10.54,17.89a2.34,2.34,0,0,1,0,4.67Z" style="fill: rgb(64, 123, 255); transform-origin: 356.895px 249.885px;" id="elfzox4opz07m" class="animable"></path><g id="elckhk77h812f"><g style="opacity: 0.3; transform-origin: 268.675px 249.888px;" class="animable"><path d="M180.45,272.44c-8.52,0-15.2-9.91-15.2-22.56s6.68-22.55,15.2-22.55,15.21,9.91,15.21,22.55a2.34,2.34,0,0,1-4.67,0c0-9.69-4.82-17.89-10.54-17.89s-10.54,8.2-10.54,17.89,4.83,17.89,10.54,17.89a2.34,2.34,0,1,1,0,4.67Z" id="el2ub8llv5c8w" class="animable" style="transform-origin: 180.455px 249.888px;"></path><path d="M215.74,272.44c-8.52,0-15.2-9.91-15.2-22.56s6.68-22.55,15.2-22.55S231,237.24,231,249.88a2.34,2.34,0,0,1-4.67,0c0-9.69-4.82-17.89-10.54-17.89s-10.54,8.2-10.54,17.89,4.83,17.89,10.54,17.89a2.34,2.34,0,0,1,0,4.67Z" id="elccrpjx1ngn9" class="animable" style="transform-origin: 215.77px 249.885px;"></path><path d="M251,272.44c-8.53,0-15.21-9.91-15.21-22.56s6.68-22.55,15.21-22.55,15.2,9.91,15.2,22.55a2.33,2.33,0,0,1-4.66,0c0-9.69-4.83-17.89-10.54-17.89s-10.54,8.2-10.54,17.89,4.83,17.89,10.54,17.89a2.34,2.34,0,0,1,0,4.67Z" id="el37ofk2crjmr" class="animable" style="transform-origin: 250.995px 249.885px;"></path><path d="M286.32,272.44c-8.53,0-15.21-9.91-15.21-22.56s6.68-22.55,15.21-22.55,15.2,9.91,15.2,22.55a2.33,2.33,0,0,1-4.66,0c0-9.69-4.83-17.89-10.54-17.89s-10.54,8.2-10.54,17.89,4.82,17.89,10.54,17.89a2.34,2.34,0,0,1,0,4.67Z" id="el5ujamm1nvc" class="animable" style="transform-origin: 286.315px 249.885px;"></path><path d="M321.6,272.44c-8.52,0-15.2-9.91-15.2-22.56s6.68-22.55,15.2-22.55,15.21,9.91,15.21,22.55a2.34,2.34,0,0,1-4.67,0c0-9.69-4.82-17.89-10.54-17.89s-10.54,8.2-10.54,17.89,4.83,17.89,10.54,17.89a2.34,2.34,0,1,1,0,4.67Z" id="el52n7ljipepy" class="animable" style="transform-origin: 321.605px 249.888px;"></path><path d="M356.89,272.44c-8.52,0-15.2-9.91-15.2-22.56s6.68-22.55,15.2-22.55,15.21,9.91,15.21,22.55a2.34,2.34,0,0,1-4.67,0c0-9.69-4.83-17.89-10.54-17.89s-10.54,8.2-10.54,17.89,4.83,17.89,10.54,17.89a2.34,2.34,0,0,1,0,4.67Z" id="eleb5jp334s7h" class="animable" style="transform-origin: 356.895px 249.885px;"></path></g></g><path d="M288.68,323.42c-8.16-1.62-17.32.27-20.59,8.87-2.63,6.92.74,14.42,8,16.25,6.4,1.61,17.44-.36,19.72-7.74,2.61-8.44-8-11.18-13.95-11.68-1.79-.15-1.78,2.65,0,2.8,2.71.23,5.81.38,8.21,1.87,5,3.13,2.94,8.15-1.32,10.55s-10.79,3-15,.34c-4.6-2.93-4.75-9.37-2-13.57,3.61-5.55,10.2-6.17,16.14-5,1.76.35,2.51-2.35.74-2.7Z" style="fill: rgb(64, 123, 255); transform-origin: 281.709px 335.979px;" id="el3hyt7652qtk" class="animable"></path><g id="elmxt0oeg8cqq"><path d="M288.68,323.42c-8.16-1.62-17.32.27-20.59,8.87-2.63,6.92.74,14.42,8,16.25,6.4,1.61,17.44-.36,19.72-7.74,2.61-8.44-8-11.18-13.95-11.68-1.79-.15-1.78,2.65,0,2.8,2.71.23,5.81.38,8.21,1.87,5,3.13,2.94,8.15-1.32,10.55s-10.79,3-15,.34c-4.6-2.93-4.75-9.37-2-13.57,3.61-5.55,10.2-6.17,16.14-5,1.76.35,2.51-2.35.74-2.7Z" style="fill: rgb(250, 250, 250); opacity: 0.1; transform-origin: 281.709px 335.979px;" class="animable"></path></g><path d="M198.65,291.21a220.55,220.55,0,0,0,26,28.8c1.32,1.23,3.31-.75,2-2a217.28,217.28,0,0,1-25.57-28.23c-1.07-1.42-3.5,0-2.41,1.41Z" style="fill: rgb(64, 123, 255); transform-origin: 212.737px 304.795px;" id="elflnzkitfm27" class="animable"></path><path d="M201.54,318.84c5.9-10.49,16.23-19.44,26-26.29,1.46-1,.07-3.46-1.41-2.42-10.16,7.14-20.84,16.36-27,27.29a1.4,1.4,0,0,0,2.41,1.42Z" style="fill: rgb(64, 123, 255); transform-origin: 213.563px 304.678px;" id="elcqilcezp9uc" class="animable"></path><g id="el1h6slh79dfn"><g style="opacity: 0.2; transform-origin: 213.277px 304.795px;" class="animable"><path d="M198.65,291.21a220.55,220.55,0,0,0,26,28.8c1.32,1.23,3.31-.75,2-2a217.28,217.28,0,0,1-25.57-28.23c-1.07-1.42-3.5,0-2.41,1.41Z" id="el7purmmhbhv9" class="animable" style="transform-origin: 212.737px 304.795px;"></path><path d="M201.54,318.84c5.9-10.49,16.23-19.44,26-26.29,1.46-1,.07-3.46-1.41-2.42-10.16,7.14-20.84,16.36-27,27.29a1.4,1.4,0,0,0,2.41,1.42Z" id="el77veh31qbev" class="animable" style="transform-origin: 213.563px 304.678px;"></path></g></g><path d="M309.87,300.16h18.25a1.4,1.4,0,0,0,0-2.79H309.87a1.4,1.4,0,0,0,0,2.79Z" style="fill: rgb(64, 123, 255); transform-origin: 318.995px 298.765px;" id="el7l2k6yuclpo" class="animable"></path><path d="M309.66,305.35h10.58a1.4,1.4,0,0,0,0-2.8H309.66a1.4,1.4,0,0,0,0,2.8Z" style="fill: rgb(64, 123, 255); transform-origin: 314.95px 303.95px;" id="elvqyww4avta7" class="animable"></path><g id="ellkqafg4w3ed"><g style="opacity: 0.1; transform-origin: 318.834px 301.36px;" class="animable"><path d="M309.87,300.16h18.25a1.4,1.4,0,0,0,0-2.79H309.87a1.4,1.4,0,0,0,0,2.79Z" style="fill: rgb(250, 250, 250); transform-origin: 318.995px 298.765px;" id="el808iz2lhca" class="animable"></path><path d="M309.66,305.35h10.58a1.4,1.4,0,0,0,0-2.8H309.66a1.4,1.4,0,0,0,0,2.8Z" style="fill: rgb(250, 250, 250); transform-origin: 314.95px 303.95px;" id="elqxyhmztj3or" class="animable"></path></g></g><path d="M200.56,371.8h15.65a1.4,1.4,0,0,0,0-2.8H200.56a1.4,1.4,0,0,0,0,2.8Z" style="fill: rgb(64, 123, 255); transform-origin: 208.385px 370.4px;" id="elany4dxy9kra" class="animable"></path><path d="M200,377.81H220.3a1.4,1.4,0,0,0,0-2.8H200a1.4,1.4,0,0,0,0,2.8Z" style="fill: rgb(64, 123, 255); transform-origin: 210.15px 376.41px;" id="elvxj147in0rm" class="animable"></path><path d="M200,384h10.15a1.4,1.4,0,0,0,0-2.8H200a1.4,1.4,0,0,0,0,2.8Z" style="fill: rgb(64, 123, 255); transform-origin: 205.075px 382.6px;" id="elcsotld0gr74" class="animable"></path><g id="elz16u61p97nd"><g style="opacity: 0.1; transform-origin: 210.15px 376.5px;" class="animable"><path d="M200.56,371.8h15.65a1.4,1.4,0,0,0,0-2.8H200.56a1.4,1.4,0,0,0,0,2.8Z" style="fill: rgb(250, 250, 250); transform-origin: 208.385px 370.4px;" id="el1i7kkm030h9" class="animable"></path><path d="M200,377.81H220.3a1.4,1.4,0,0,0,0-2.8H200a1.4,1.4,0,0,0,0,2.8Z" style="fill: rgb(250, 250, 250); transform-origin: 210.15px 376.41px;" id="ellgyc4r8rfj" class="animable"></path><path d="M200,384h10.15a1.4,1.4,0,0,0,0-2.8H200a1.4,1.4,0,0,0,0,2.8Z" style="fill: rgb(250, 250, 250); transform-origin: 205.075px 382.6px;" id="elu4jcr3g12l9" class="animable"></path></g></g></g><g id="freepik--Character--inject-102" class="animable animator-active" style="transform-origin: 141.084px 265.035px;"><path d="M90.19,214.79l4.73-.21-2.14,9a24.77,24.77,0,0,1-4.58-4.05,2.29,2.29,0,0,1,.24-3.21Z" style="fill: rgb(228, 137, 123); transform-origin: 91.2872px 219.08px;" id="el70vhxmhyc05" class="animable"></path><polygon points="100.41 219.43 98.29 226.75 92.78 223.56 94.92 214.58 100.41 219.43" style="fill: rgb(228, 137, 123); transform-origin: 96.595px 220.665px;" id="elqan7lz05mz" class="animable"></polygon><g id="elrki78gyzscr"><rect x="100.88" y="175.91" width="9.72" height="240.77" style="fill: rgb(64, 123, 255); transform-origin: 105.74px 296.295px; transform: rotate(-5.29deg);" class="animable"></rect></g><g id="ellcr033epigq"><rect x="100.88" y="175.91" width="9.72" height="240.77" style="opacity: 0.3; transform-origin: 105.74px 296.295px; transform: rotate(-5.29deg);" class="animable"></rect></g><g id="elk90qds1zxcl"><rect x="120.24" y="174.11" width="9.72" height="240.77" style="fill: rgb(64, 123, 255); transform-origin: 125.1px 294.495px; transform: rotate(-5.29deg);" class="animable"></rect></g><g id="elvvpf7pai61m"><rect x="120.24" y="174.11" width="9.72" height="240.77" style="opacity: 0.3; transform-origin: 125.1px 294.495px; transform: rotate(-5.29deg);" class="animable"></rect></g><g id="elsb9cfdzvv6m"><rect x="110.56" y="175.01" width="9.72" height="240.77" style="fill: rgb(64, 123, 255); transform-origin: 115.42px 295.395px; transform: rotate(-5.29deg);" class="animable"></rect></g><g id="eldj55j36vkvk"><rect x="110.56" y="175.01" width="9.72" height="240.77" style="opacity: 0.1; transform-origin: 115.42px 295.395px; transform: rotate(-5.29deg);" class="animable"></rect></g><polygon points="107.12 158.31 98.41 159.12 89.8 176.87 118.84 174.18 107.12 158.31" style="fill: rgb(64, 123, 255); transform-origin: 104.32px 167.59px;" id="elycba0z7ur8" class="animable"></polygon><g id="el4d2iav6e1dv"><g style="opacity: 0.8; transform-origin: 104.32px 167.59px;" class="animable"><polygon points="107.12 158.31 98.41 159.12 89.8 176.87 118.84 174.18 107.12 158.31" style="fill: rgb(250, 250, 250); transform-origin: 104.32px 167.59px;" id="el53iumgeoknm" class="animable"></polygon></g></g><polygon points="102.1 151.51 98.41 159.12 107.12 158.31 102.1 151.51" style="fill: rgb(38, 50, 56); transform-origin: 102.765px 155.315px;" id="eltx40ty7y4yp" class="animable"></polygon><path d="M175.28,165.06c1,1,1.83,1.95,2.69,3s1.68,2,2.5,3c1.65,2,3.19,4.11,4.69,6.26a74,74,0,0,1,7.78,14c.25.64.48,1.31.72,2l.36,1a9.91,9.91,0,0,1,.42,1.84,12.5,12.5,0,0,1-.77,5.87,27.8,27.8,0,0,1-4.48,7.6,62.34,62.34,0,0,1-11.44,10.85l-3.77-4a105.36,105.36,0,0,0,8.12-11.69,22,22,0,0,0,2.44-5.59,2.78,2.78,0,0,0,.05-1.49s0,0,0,0l-.34-.74c-.23-.49-.43-1-.68-1.48a78.26,78.26,0,0,0-7.4-11.69c-1.4-1.91-2.88-3.77-4.38-5.63-.75-.92-1.51-1.84-2.29-2.74l-2.28-2.63Z" style="fill: rgb(228, 137, 123); transform-origin: 180.867px 192.77px;" id="elkezlfhlo32b" class="animable"></path><polygon points="167.93 219.53 172.19 227.96 176.36 224.37 172.94 218.38 167.93 219.53" style="fill: rgb(228, 137, 123); transform-origin: 172.145px 223.17px;" id="el2otjskgrr5u" class="animable"></polygon><path d="M135.84,170q-3.89,7.41-8.08,14.65c-1.37,2.43-2.81,4.82-4.21,7.23l-2.15,3.6-.54.9c-.27.43-.57.94-.84,1.28s-.54.75-.8,1.06-.54.66-.8.95a74.52,74.52,0,0,1-6.44,6.22c-2.19,1.87-4.38,3.69-6.64,5.42-4.47,3.49-9.06,6.74-13.82,9.84l-3.43-4.32,11.85-11.67c1.94-2,3.9-3.88,5.75-5.86a70.18,70.18,0,0,0,5.13-5.88q.29-.36.51-.69c.17-.24.29-.44.41-.64a4.7,4.7,0,0,0,.28-.5l.46-.93,1.85-3.77c1.27-2.49,2.51-5,3.8-7.47q3.83-7.47,8-14.77Z" style="fill: rgb(228, 137, 123); transform-origin: 111.965px 192.9px;" id="el8k00rfy0ss6" class="animable"></path><path d="M163.91,136.22c-.13.58.08,1.13.45,1.23s.78-.3.91-.88-.09-1.13-.46-1.23S164,135.64,163.91,136.22Z" style="fill: rgb(38, 50, 56); transform-origin: 164.589px 136.395px;" id="el4863gw74gj4" class="animable"></path><path d="M163.93,137.34a22.24,22.24,0,0,0,1.7,5.65,3.39,3.39,0,0,1-2.86-.17Z" style="fill: rgb(222, 87, 83); transform-origin: 164.2px 140.284px;" id="elogr54uts95b" class="animable"></path><path d="M165.44,132.7a.36.36,0,0,1-.2-.06,2.67,2.67,0,0,0-2.48-.16.36.36,0,0,1-.46-.19.36.36,0,0,1,.19-.46,3.41,3.41,0,0,1,3.15.24.34.34,0,0,1,.09.48A.35.35,0,0,1,165.44,132.7Z" style="fill: rgb(38, 50, 56); transform-origin: 164.034px 132.127px;" id="elt2dt85nexh" class="animable"></path><path d="M143.68,138.43c1.26,5.38,2.69,15.22-.93,18.81,0,0,1.68,5.45,11.67,5.45,11,0,5-5.45,5-5.45-6.05-1.43-6.07-5.88-5.19-10.05Z" style="fill: rgb(228, 137, 123); transform-origin: 151.902px 150.56px;" id="elfbimzbwwydo" class="animable"></path><path d="M141.39,159.11c-.86-1.72-1.8-3.7,0-4.32,1.94-.68,12.71-1.37,16.48-.1a4,4,0,0,1,2.86,4.78Z" style="fill: rgb(64, 123, 255); transform-origin: 150.6px 156.725px;" id="el1kxvkbvz7ie" class="animable"></path><g id="elh6hevmlf1w"><path d="M141.39,159.11c-.86-1.72-1.8-3.7,0-4.32,1.94-.68,12.71-1.37,16.48-.1a4,4,0,0,1,2.86,4.78Z" style="fill: rgb(250, 250, 250); opacity: 0.6; transform-origin: 150.6px 156.725px;" class="animable"></path></g><path d="M127,410a9.34,9.34,0,0,1-1.92-.21.16.16,0,0,1-.13-.13.18.18,0,0,1,.07-.18c.08-.06,2-1.44,3.12-1.2a.83.83,0,0,1,.58.41.69.69,0,0,1,0,.83C128.48,409.91,127.75,410,127,410Zm-1.43-.46c1.1.18,2.6.18,2.9-.23,0,0,.12-.16-.05-.45a.49.49,0,0,0-.35-.24A4.59,4.59,0,0,0,125.57,409.56Z" style="fill: rgb(250, 250, 250); transform-origin: 126.903px 409.126px;" id="elyqlabv4ay39" class="animable"></path><path d="M125.12,409.82l-.09,0a.16.16,0,0,1-.08-.15c0-.09.09-2.21.92-2.91a.93.93,0,0,1,.74-.23.58.58,0,0,1,.57.47c.16.82-1.24,2.42-2,2.83Zm1.37-3a.6.6,0,0,0-.39.15,4.06,4.06,0,0,0-.78,2.31c.72-.57,1.61-1.78,1.52-2.26,0-.05,0-.17-.27-.2Z" style="fill: rgb(250, 250, 250); transform-origin: 126.071px 408.176px;" id="eljc7r2xgstm9" class="animable"></path><path d="M171.12,410a12.3,12.3,0,0,1-2.26-.21.17.17,0,0,1-.14-.14.18.18,0,0,1,.08-.18c.37-.21,3.63-2.08,4.42-.79a.67.67,0,0,1,0,.77C173,409.89,172.06,410,171.12,410Zm-1.71-.47c1.38.2,3.24.17,3.56-.28,0,0,.1-.14-.05-.39C172.48,408.15,170.5,409,169.41,409.55Z" style="fill: rgb(250, 250, 250); transform-origin: 171.03px 409.115px;" id="eldj2f6miyvbi" class="animable"></path><path d="M168.89,409.82a.19.19,0,0,1-.1,0,.17.17,0,0,1-.07-.16c0-.08.12-2.06,1-2.83a1.2,1.2,0,0,1,1-.3c.49.05.63.3.66.5.14.85-1.53,2.4-2.41,2.8Zm1.68-3a.87.87,0,0,0-.6.23,3.88,3.88,0,0,0-.87,2.27c.88-.54,2-1.77,1.93-2.28,0-.05,0-.18-.36-.22Z" style="fill: rgb(250, 250, 250); transform-origin: 170.053px 408.173px;" id="elao5h93vq82" class="animable"></path><polygon points="160.81 409.64 168.16 409.64 168.23 392.63 160.89 392.63 160.81 409.64" style="fill: rgb(228, 137, 123); transform-origin: 164.52px 401.135px;" id="elxlmvig5pngf" class="animable"></polygon><polygon points="116.7 409.64 124.05 409.64 127.09 392.63 119.74 392.63 116.7 409.64" style="fill: rgb(228, 137, 123); transform-origin: 121.895px 401.135px;" id="elwfirg9brjte" class="animable"></polygon><path d="M124.54,408.79h-8.25a.61.61,0,0,0-.61.51l-1.2,6.53a1.13,1.13,0,0,0,1.13,1.3c2.88-.05,4.27-.22,7.9-.22,2.23,0,6.84.24,9.93.24s3.36-3,2.09-3.33c-5.71-1.24-7.91-2.95-9.78-4.57A1.83,1.83,0,0,0,124.54,408.79Z" style="fill: rgb(38, 50, 56); transform-origin: 125.355px 412.97px;" id="elm4j3mltbb57" class="animable"></path><path d="M168.08,408.79h-8a.61.61,0,0,0-.61.51l-1.2,6.53a1.11,1.11,0,0,0,1.11,1.3c2.89-.05,7.06-.22,10.7-.22,4.26,0,7.94.24,12.93.24,3,0,3.73-3,2.46-3.33-5.8-1.26-10.5-1.39-15.58-4.45A3.46,3.46,0,0,0,168.08,408.79Z" style="fill: rgb(38, 50, 56); transform-origin: 172.16px 412.97px;" id="elxbefpspkic" class="animable"></path><path d="M128.74,158.9c-6.83,1.58-14,20.35-14,20.35l14.19,9.48a110.51,110.51,0,0,0,8.54-15.53C141.22,164.61,135.71,157.29,128.74,158.9Z" style="fill: rgb(64, 123, 255); transform-origin: 126.712px 173.703px;" id="elbl2f49a2o1d" class="animable"></path><g id="el3ro2o7ubu89"><path d="M128.74,158.9c-6.83,1.58-14,20.35-14,20.35l14.19,9.48a110.51,110.51,0,0,0,8.54-15.53C141.22,164.61,135.71,157.29,128.74,158.9Z" style="opacity: 0.7; transform-origin: 126.712px 173.703px;" class="animable"></path></g><path d="M134.13,170.87l-5.87,17.41.67.45s2.68-4,5.53-9.33Z" style="fill: rgb(64, 123, 255); transform-origin: 131.36px 179.8px;" id="elvx2ryzdzw9g" class="animable"></path><g id="el014m1jgxmt43"><path d="M134.13,170.87l-5.87,17.41.67.45s2.68-4,5.53-9.33Z" style="opacity: 0.8; transform-origin: 131.36px 179.8px;" class="animable"></path></g><path d="M174.57,191.72c-.06,8.2-.55,18.4-1.77,31.06H133.5c-.51-6,2.15-35.46-4.76-63.88a101.07,101.07,0,0,1,13.09-1.66,145.28,145.28,0,0,1,16.7,0,74.84,74.84,0,0,1,11.37,2s3.36,3.64,4.38,20.71C174.48,183.36,174.59,187.24,174.57,191.72Z" style="fill: rgb(64, 123, 255); transform-origin: 151.656px 189.89px;" id="elqlm6ne4myen" class="animable"></path><g id="el8hqrexq6chi"><path d="M174.57,191.72c-.06,8.2-.55,18.4-1.77,31.06H133.5c-.51-6,2.15-35.46-4.76-63.88a101.07,101.07,0,0,1,13.09-1.66,145.28,145.28,0,0,1,16.7,0,74.84,74.84,0,0,1,11.37,2s3.36,3.64,4.38,20.71C174.48,183.36,174.59,187.24,174.57,191.72Z" style="opacity: 0.7; transform-origin: 151.656px 189.89px;" class="animable"></path></g><path d="M174.57,191.72c-2.38-4.34-6.7-13.05-6.09-18l5.8,6.28C174.48,183.36,174.59,187.24,174.57,191.72Z" style="fill: rgb(64, 123, 255); transform-origin: 171.497px 182.72px;" id="elkzzknxxjim" class="animable"></path><g id="elpyqqyckotpn"><path d="M174.57,191.72c-2.38-4.34-6.7-13.05-6.09-18l5.8,6.28C174.48,183.36,174.59,187.24,174.57,191.72Z" style="opacity: 0.8; transform-origin: 171.497px 182.72px;" class="animable"></path></g><path d="M162.2,165.92c-.62,7,15.25,23.84,15.25,23.84l12.72-10.36a82,82,0,0,0-11.89-15.5C170.84,156.71,162.9,158.08,162.2,165.92Z" style="fill: rgb(64, 123, 255); transform-origin: 176.176px 174.481px;" id="el7n168sxs09" class="animable"></path><g id="eljfkjsb3nqc"><path d="M162.2,165.92c-.62,7,15.25,23.84,15.25,23.84l12.72-10.36a82,82,0,0,0-11.89-15.5C170.84,156.71,162.9,158.08,162.2,165.92Z" style="opacity: 0.7; transform-origin: 176.176px 174.481px;" class="animable"></path></g><polygon points="168.23 392.64 168.19 401.4 160.85 401.4 160.88 392.64 168.23 392.64" style="fill: rgb(206, 111, 100); transform-origin: 164.54px 397.02px;" id="eleialf97ws96" class="animable"></polygon><polygon points="119.74 392.64 127.09 392.64 125.52 401.4 118.17 401.4 119.74 392.64" style="fill: rgb(206, 111, 100); transform-origin: 122.63px 397.02px;" id="elohgsbeheu" class="animable"></polygon><path d="M145,130.15c-1.07,7.24-2.06,11.4.72,16a9.49,9.49,0,0,0,16.79-.89c2.87-6,4.15-16.84-2.16-21.42A9.58,9.58,0,0,0,145,130.15Z" style="fill: rgb(228, 137, 123); transform-origin: 154.397px 136.32px;" id="elgc3u7738jro" class="animable"></path><path d="M166.75,126.72a18.26,18.26,0,0,1-7,2.15c-1.83,8.37-6.7,18-14.58,15.23-3-1-6-8.27-6.31-14.72-.52.63-.87,1.45-1.14,1.79a16.28,16.28,0,0,1,.94-8.5c2.18-6.18,3.63-2.08,6-5.83,1.53-2.48,4.25-3.76,9-3.92-1.33.69-1.58,1.8.39,1.64s10.38-.62,15.28,2.69c-3.31.75-1.29,6,3.13,3.2C170.85,123.06,168.85,125.54,166.75,126.72Z" style="fill: rgb(38, 50, 56); transform-origin: 154.992px 128.753px;" id="elbenodmuf1au" class="animable"></path><path d="M154.09,134.63a8.62,8.62,0,0,0,1.76,5.09c1.49,1.92,3.2,1,3.61-1.16.36-1.92,0-5.24-1.86-6.4S154.08,132.43,154.09,134.63Z" style="fill: rgb(228, 137, 123); transform-origin: 156.837px 136.257px;" id="el48maj83aftb" class="animable"></path><path d="M145.13,117.62a6.13,6.13,0,0,1-4.89-3S140.11,120.48,145.13,117.62Z" style="fill: rgb(30, 42, 76); transform-origin: 142.685px 116.513px;" id="elxqe218y7hf" class="animable"></path><path d="M158.85,222.78s-6.16,56.14-9.93,77.17c-4.12,23-20,99.76-20,99.76H115.42S125,324.84,127,302c2.15-24.75,6.54-79.26,6.54-79.26Z" style="fill: rgb(64, 123, 255); transform-origin: 137.135px 311.225px;" id="elj2lqx5w411c" class="animable"></path><g id="elfck2w64u0f9"><path d="M158.85,222.78s-6.16,56.14-9.93,77.17c-4.12,23-20,99.76-20,99.76H115.42S125,324.84,127,302c2.15-24.75,6.54-79.26,6.54-79.26Z" style="fill: rgb(250, 250, 250); opacity: 0.6; transform-origin: 137.135px 311.225px;" class="animable"></path></g><path d="M130.83,394.75c.06,0-1.19,5.17-1.19,5.17H114.51l.1-4.61Z" style="fill: rgb(64, 123, 255); transform-origin: 122.671px 397.335px;" id="elkc29km31rri" class="animable"></path><g id="el1z2ma266bwv"><path d="M130.83,394.75c.06,0-1.19,5.17-1.19,5.17H114.51l.1-4.61Z" style="fill: rgb(250, 250, 250); opacity: 0.1; transform-origin: 122.671px 397.335px;" class="animable"></path></g><path d="M154.36,242.78c-9.57,1.89-7.16,37.84-5.29,56.33,2.28-13.07,5.38-38.22,7.47-56.07A3.34,3.34,0,0,0,154.36,242.78Z" style="fill: rgb(64, 123, 255); transform-origin: 151.947px 270.906px;" id="el7tb3xfpjnge" class="animable"></path><g id="el4d0bc1994k"><path d="M154.36,242.78c-9.57,1.89-7.16,37.84-5.29,56.33,2.28-13.07,5.38-38.22,7.47-56.07A3.34,3.34,0,0,0,154.36,242.78Z" style="fill: rgb(250, 250, 250); opacity: 0.4; transform-origin: 151.947px 270.906px;" class="animable"></path></g><path d="M172.79,222.78s3.14,54.92,3.2,77.33c.07,23.3-5.12,99.6-5.12,99.6H158.42s-3.35-74.94-4.79-97.82c-1.56-24.95-6.67-79.11-6.67-79.11Z" style="fill: rgb(64, 123, 255); transform-origin: 161.475px 311.245px;" id="eljc5mx1aiyqp" class="animable"></path><g id="elr1weufz4rvg"><path d="M172.79,222.78s3.14,54.92,3.2,77.33c.07,23.3-5.12,99.6-5.12,99.6H158.42s-3.35-74.94-4.79-97.82c-1.56-24.95-6.67-79.11-6.67-79.11Z" style="fill: rgb(250, 250, 250); opacity: 0.6; transform-origin: 161.475px 311.245px;" class="animable"></path></g><path d="M175.8,215.72l-3.49.28a1.92,1.92,0,0,0-1.68,2.46l1.44,4.85a2.56,2.56,0,0,0,4,1.28,13.09,13.09,0,0,0,3.73-6.21Z" style="fill: rgb(228, 137, 123); transform-origin: 175.175px 220.418px;" id="elyaupyrdqa" class="animable"></path><path d="M167.92,390.77h0a.14.14,0,0,1-.12-.14c1.38-21.11,4.58-72.2,4.52-90.52,0-18.75-2.28-60.69-3-73.1a.12.12,0,0,1,.12-.13.13.13,0,0,1,.13.12c.68,12.41,2.91,54.35,3,73.11.06,18.33-3.14,69.42-4.52,90.54A.12.12,0,0,1,167.92,390.77Z" style="fill: rgb(64, 123, 255); transform-origin: 170.185px 308.825px;" id="ele0kumbxj1os" class="animable"></path><g id="elpjo0j6wd38l"><path d="M167.92,390.77h0a.14.14,0,0,1-.12-.14c1.38-21.11,4.58-72.2,4.52-90.52,0-18.75-2.28-60.69-3-73.1a.12.12,0,0,1,.12-.13.13.13,0,0,1,.13.12c.68,12.41,2.91,54.35,3,73.11.06,18.33-3.14,69.42-4.52,90.54A.12.12,0,0,1,167.92,390.77Z" style="fill: rgb(250, 250, 250); opacity: 0.3; transform-origin: 170.185px 308.825px;" class="animable"></path></g><path d="M173.07,394.75c.06,0-.5,5.17-.5,5.17H157.43l-.59-4.61Z" style="fill: rgb(64, 123, 255); transform-origin: 164.957px 397.335px;" id="elh1dpxlr69vv" class="animable"></path><g id="elt9serxmrfqq"><path d="M173.07,394.75c.06,0-.5,5.17-.5,5.17H157.43l-.59-4.61Z" style="fill: rgb(250, 250, 250); opacity: 0.1; transform-origin: 164.957px 397.335px;" class="animable"></path></g></g><defs>     <filter id="active" height="200%">         <feMorphology in="SourceAlpha" result="DILATED" operator="dilate" radius="2"></feMorphology>                <feFlood flood-color="#32DFEC" flood-opacity="1" result="PINK"></feFlood>        <feComposite in="PINK" in2="DILATED" operator="in" result="OUTLINE"></feComposite>        <feMerge>            <feMergeNode in="OUTLINE"></feMergeNode>            <feMergeNode in="SourceGraphic"></feMergeNode>        </feMerge>    </filter>    <filter id="hover" height="200%">        <feMorphology in="SourceAlpha" result="DILATED" operator="dilate" radius="2"></feMorphology>                <feFlood flood-color="#ff0000" flood-opacity="0.5" result="PINK"></feFlood>        <feComposite in="PINK" in2="DILATED" operator="in" result="OUTLINE"></feComposite>        <feMerge>            <feMergeNode in="OUTLINE"></feMergeNode>            <feMergeNode in="SourceGraphic"></feMergeNode>        </feMerge>            <feColorMatrix type="matrix" values="0   0   0   0   0                0   1   0   0   0                0   0   0   0   0                0   0   0   1   0 "></feColorMatrix>    </filter></defs></svg>